<mxfile host="app.diagrams.net" modified="2022-08-03T09:43:10.767Z" agent="5.0 (Windows NT 10.0; Win64; x64) AppleWebKit/537.36 (KHTML, like Gecko) Chrome/103.0.5060.134 Safari/537.36 Edg/103.0.1264.77" etag="WMk7WCT8LfjXW29VDNM6" version="20.2.2" type="github">
  <diagram id="i1JLniOj2O3--JGgW5lW" name="第 1 页">
    <mxGraphModel dx="1422" dy="794" grid="1" gridSize="10" guides="1" tooltips="1" connect="1" arrows="1" fold="1" page="1" pageScale="1" pageWidth="827" pageHeight="1169" math="0" shadow="0">
      <root>
        <mxCell id="0" />
        <mxCell id="1" parent="0" />
        <mxCell id="BAH_8OyrYWaH45ClL6kI-3" value="" style="edgeStyle=orthogonalEdgeStyle;rounded=0;orthogonalLoop=1;jettySize=auto;html=1;" edge="1" parent="1" source="BAH_8OyrYWaH45ClL6kI-1" target="BAH_8OyrYWaH45ClL6kI-2">
          <mxGeometry relative="1" as="geometry" />
        </mxCell>
        <mxCell id="BAH_8OyrYWaH45ClL6kI-1" value="使用&lt;br&gt;" style="rounded=0;whiteSpace=wrap;html=1;" vertex="1" parent="1">
          <mxGeometry x="354" y="80" width="120" height="60" as="geometry" />
        </mxCell>
        <mxCell id="BAH_8OyrYWaH45ClL6kI-5" value="" style="edgeStyle=orthogonalEdgeStyle;rounded=0;orthogonalLoop=1;jettySize=auto;html=1;" edge="1" parent="1" source="BAH_8OyrYWaH45ClL6kI-2" target="BAH_8OyrYWaH45ClL6kI-4">
          <mxGeometry relative="1" as="geometry" />
        </mxCell>
        <mxCell id="BAH_8OyrYWaH45ClL6kI-2" value="模块化" style="whiteSpace=wrap;html=1;rounded=0;" vertex="1" parent="1">
          <mxGeometry x="354" y="220" width="120" height="60" as="geometry" />
        </mxCell>
        <mxCell id="BAH_8OyrYWaH45ClL6kI-4" value="Update控制&lt;br&gt;" style="whiteSpace=wrap;html=1;rounded=0;" vertex="1" parent="1">
          <mxGeometry x="554" y="220" width="120" height="60" as="geometry" />
        </mxCell>
      </root>
    </mxGraphModel>
  </diagram>
</mxfile>
